<svg id="alarm_on" data-name="alarm on" xmlns="http://www.w3.org/2000/svg" width="61.061" height="72.135" viewBox="0 0 61.061 72.135">
  <path id="Union_2" data-name="Union 2" d="M-2945.944,3189.585H-2976s6.312-11.961,10.856-23.035a115.9,115.9,0,0,1,1.33-16.5c2.171-9.965,10.016-12.747,14.866-13.5v-5.54a3.006,3.006,0,0,1,3.006-3.005,3.006,3.006,0,0,1,3.005,3.005v5.41c4.7.54,13.494,2.989,15.816,13.634a116.338,116.338,0,0,1,1.33,16.5c4.54,11.074,10.852,23.035,10.852,23.035Z" transform="translate(2976 -3128)" fill="#fff"/>
  <path id="Rectangle_142" data-name="Rectangle 142" d="M0,0H28.554a9.017,9.017,0,0,1-9.017,9.017H9.017A9.017,9.017,0,0,1,0,0Z" transform="translate(16.531 63.118)" fill="#fff"/>
</svg>
