<svg xmlns="http://www.w3.org/2000/svg" xmlns:xlink="http://www.w3.org/1999/xlink" width="135.17" height="71.15" viewBox="0 0 135.17 71.15">
  <defs>
    <clipPath id="clip-path">
      <rect id="Rectangle_95" data-name="Rectangle 95" width="71.151" height="135.17" fill="#65ce61"/>
    </clipPath>
  </defs>
  <g id="Group_431" data-name="Group 431" transform="translate(-1137.732 16420)">
    <g id="Group_430" data-name="Group 430" transform="translate(1272.902 -16420) rotate(90)">
      <g id="Group_310" data-name="Group 310" clip-path="url(#clip-path)">
        <path id="Path_149" data-name="Path 149" d="M10.474,135.17c-1.888-.775-3.966-1.268-5.625-2.383-3.621-2.434-4.855-6.16-4.849-10.41Q.031,99.73.008,77.085q0-28.258,0-56.516a12.729,12.729,0,0,1,2.428-8.178A11.893,11.893,0,0,1,12.441,7.727c2.988.019,5.975,0,9.137,0V0H48.94V7.73c.682,0,1.2-.005,1.715,0C54,7.769,57.35,7.7,60.686,7.877A11.492,11.492,0,0,1,70.975,18.071c.1,1.359.158,2.723.158,4.085q.012,50.045.018,100.091c0,4.3-1.187,8.074-4.851,10.544-1.657,1.117-3.738,1.606-5.627,2.38ZM7.829,71.414q0,25.485,0,50.97c0,3.62,1.326,4.975,4.9,4.975q22.848.005,45.7,0c3.517,0,4.894-1.371,4.894-4.848q0-51.036,0-102.072c0-3.553-1.381-4.922-4.965-4.923H12.79c-3.581,0-4.96,1.37-4.96,4.927q0,25.485,0,50.97" transform="translate(0)" fill="#65ce61"/>
      </g>
    </g>
    <rect id="Rectangle_149" data-name="Rectangle 149" width="106.821" height="51.642" rx="2" transform="translate(1148.015 -16410.246)" fill="#65ce61"/>
  </g>
</svg>
