<svg xmlns="http://www.w3.org/2000/svg" width="91.837" height="91.837" viewBox="0 0 91.837 91.837">
  <path id="Path_159" data-name="Path 159" d="M65.419,111.337a45.919,45.919,0,1,1,45.919-45.919A45.985,45.985,0,0,1,65.419,111.337Zm0-85.43A39.511,39.511,0,1,0,104.93,65.419,39.559,39.559,0,0,0,65.419,25.907Zm0,64.286A24.755,24.755,0,0,1,49.187,46.731a3.18,3.18,0,0,1,4.165,4.805A18.394,18.394,0,1,0,79.3,53.352a14.577,14.577,0,0,0-1.815-1.815,3.109,3.109,0,0,1-.32-4.485,3.2,3.2,0,0,1,4.485-.32h0A24.773,24.773,0,0,1,65.419,90.193Zm0-29.046a3.146,3.146,0,0,1-3.2-3.2V38.722a3.2,3.2,0,1,1,6.407,0V57.943A3.213,3.213,0,0,1,65.419,61.147Z" transform="translate(-19.5 -19.5)" fill="#fff"/>
</svg>
